<svg xmlns="http://www.w3.org/2000/svg"
     width="40" height="40" viewBox="-10 -10 20 20">

    <defs>
        <linearGradient id="grad1" x1="0%" y1="0%" x2="100%" y2="0%">
            <stop stop-color="darkred" offset="0%"/>
            <stop stop-color="red" offset="100%"/>
        </linearGradient>
        <g id="flag" transform="translate(-3,0)">
            <path id="palo" fill="black" d="M -8 9 L -8 -9 L -7.2 -9 L -7.2 9 L -7 9 Z"/>
            <path fill="url(#grad1) " d="M -1 -6 L 6 -4 L 6 -3 L -1 0 Z"/>
            <path fill="darkred" d="M 0 -1 L -1 0 L -1 -2 L 0 -1 Z"/>
            <path fill="url(#grad1)" d="M -7 -9 L -7 1 L 0 -1 L 0 -7 L -7 -9 Z"/>
            <path fill="none" stroke-width="0.5" stroke="black" d="M -2.12 -4.9 A 1.56 1.56 90 0 0 -5.24 -4.9 L -5.24 -3.34 A 1.56 1.56 90 0 0 -2.12 -3.34 L -2.12 -4.12 L -3.68 -4.12"/>
        </g>
    </defs>
    <use href="#flag" transform="translate(5, 0)"/>
</svg>